<?xml version="1.0" encoding="utf-8"?>
<!-- Generator: Adobe Illustrator 16.0.0, SVG Export Plug-In . SVG Version: 6.00 Build 0)  -->
<!DOCTYPE svg PUBLIC "-//W3C//DTD SVG 1.1//EN" "http://www.w3.org/Graphics/SVG/1.1/DTD/svg11.dtd">
<svg version="1.1" id="图层_1" xmlns="http://www.w3.org/2000/svg" xmlns:xlink="http://www.w3.org/1999/xlink" x="0px" y="0px"
	 width="217px" height="146px" viewBox="-8.25 19.25 217 146" enable-background="new -8.25 19.25 217 146" xml:space="preserve">
<g id="图层_2">
</g>
<g id="Layer_2">
	<g>
		<path fill="#2C3E50" d="M75.354,133.261c-1.89,0-3.421,1.529-3.421,3.417c0,1.889,1.531,3.42,3.421,3.42
			c1.886,0,3.419-1.531,3.419-3.42C78.772,134.79,77.239,133.261,75.354,133.261z"/>
		<path fill="#2C3E50" d="M67.116,101.729c0.011-0.014,0.023-0.026,0.036-0.039c-0.016,0.002-0.028,0.006-0.046,0.008
			C67.11,101.709,67.113,101.719,67.116,101.729z"/>
		<circle fill="#2C3E50" cx="133.292" cy="130.814" r="6.838"/>
		<circle fill="#2C3E50" cx="113.978" cy="124.948" r="5.813"/>
		<circle fill="#2C3E50" cx="94.666" cy="130.812" r="4.786"/>
		<path fill="#2C3E50" d="M60.146,128.417c-1.319,0-2.395,1.073-2.395,2.396s1.075,2.395,2.395,2.395
			c1.321,0,2.395-1.071,2.395-2.395C62.54,129.49,61.467,128.417,60.146,128.417z"/>
		<path fill="#2C3E50" d="M148.949,76.22c-0.449,0-0.897,0.014-1.346,0.034l-0.387,0.021c-0.343,0.021-0.673,0.046-0.999,0.076
			l-0.403,0.04c-0.325,0.032-0.659,0.071-0.993,0.118c-3.691-18.713-19.901-32.106-39.212-32.106
			c-15.661,0-29.733,9.021-36.262,23.104c-1.364-0.249-2.757-0.376-4.159-0.376c-10.551,0-19.715,7.214-22.252,17.327
			C33.38,86.257,25.542,93.493,23,102.909l-0.022,0.012l-0.188,0.813c-0.008,0.033-0.016,0.066-0.022,0.101l-0.021,0.087
			c-0.063,0.29-0.127,0.582-0.183,0.877l-0.027,0.155c-0.065,0.36-0.115,0.657-0.16,0.961c-0.015,0.106-0.028,0.213-0.042,0.317
			l-0.012,0.104c-0.033,0.246-0.063,0.501-0.091,0.758c-0.016,0.162-0.025,0.324-0.037,0.485l-0.026,0.358
			c-0.009,0.119-0.019,0.239-0.024,0.36c-0.021,0.422-0.031,0.836-0.031,1.255c0,14.084,11.458,25.543,25.542,25.543
			c2.807,0,5.091-2.283,5.091-5.091c0-2.806-2.285-5.089-5.091-5.089c-8.471,0-15.364-6.891-15.364-15.363
			c0-8.348,6.793-15.236,15.141-15.357l0.3-0.002c3.462,0.012,6.739,1.156,9.457,3.313c0.898,0.709,2.02,1.1,3.16,1.1
			c1.567,0,3.021-0.703,3.991-1.93c1.741-2.195,1.371-5.404-0.829-7.149c-2.974-2.354-6.299-3.971-9.907-4.82
			c2.06-4.438,6.578-7.396,11.583-7.396c1.782,0,3.51,0.36,5.134,1.076l5.174,2.276l1.724-5.382
			c3.971-12.381,15.379-20.698,28.39-20.698c14.734,0,27.175,10.715,29.433,25.124c-5.896,3.156-10.549,8.234-13.186,14.421
			c-1.098,2.581,0.106,5.576,2.688,6.676c0.637,0.272,1.308,0.408,1.996,0.408c2.044,0,3.881-1.216,4.682-3.096
			c2.032-4.771,5.967-8.573,10.796-10.432l0.143-0.057c0.354-0.131,0.716-0.252,1.077-0.364l0.271-0.079
			c0.791-0.234,1.624-0.421,2.463-0.552l0.197-0.03c0.416-0.061,0.832-0.106,1.248-0.141l0.235-0.017
			c0.424-0.027,0.858-0.047,1.299-0.047c10.619,0,19.259,8.642,19.259,19.261s-8.64,19.258-19.259,19.258
			c-2.807,0-5.09,2.285-5.09,5.089c0,2.808,2.283,5.091,5.09,5.091c16.23,0,29.438-13.207,29.438-29.438
			C178.387,89.427,165.181,76.22,148.949,76.22z"/>
	</g>
</g>
<g id="Layer_2_x5F_复制" display="none">
	<path display="inline" fill="#FFFFFF" d="M120.841,509.479c0.01-0.015,0.023-0.027,0.036-0.039
		c-0.016,0.001-0.029,0.005-0.046,0.007C120.835,509.459,120.838,509.469,120.841,509.479z"/>
	<path display="inline" fill="#FFFFFF" d="M197.088,483.97c-0.45,0-0.898,0.015-1.346,0.034l-0.387,0.021
		c-0.343,0.021-0.673,0.046-0.999,0.075l-0.403,0.04c-0.325,0.032-0.659,0.071-0.993,0.118
		c-3.692-18.713-19.902-32.105-39.212-32.105c-15.661,0-29.734,9.021-36.262,23.104c-1.364-0.249-2.757-0.376-4.159-0.376
		c-10.551,0-19.715,7.214-22.252,17.327c-9.557,1.799-17.395,9.035-19.937,18.451l-0.022,0.012l-0.188,0.813
		c-0.007,0.032-0.015,0.066-0.022,0.101l-0.021,0.087c-0.063,0.29-0.127,0.582-0.182,0.877l-0.028,0.155
		c-0.065,0.361-0.115,0.658-0.16,0.961c-0.014,0.107-0.028,0.213-0.042,0.317l-0.011,0.104c-0.034,0.246-0.064,0.501-0.091,0.758
		c-0.016,0.162-0.026,0.324-0.037,0.485l-0.027,0.357c-0.008,0.12-0.018,0.24-0.024,0.361c-0.021,0.422-0.031,0.836-0.031,1.255
		c0,14.084,11.458,25.543,25.542,25.543c2.806,0,5.09-2.282,5.09-5.091c0-2.806-2.285-5.089-5.09-5.089
		c-8.471,0-15.365-6.891-15.365-15.363c0-8.348,6.793-15.236,15.141-15.356l0.3-0.002c3.462,0.011,6.739,1.156,9.457,3.312
		c0.898,0.709,2.019,1.1,3.16,1.1c1.567,0,3.021-0.703,3.991-1.93c1.741-2.195,1.371-5.403-0.829-7.148
		c-2.974-2.355-6.299-3.972-9.907-4.821c2.059-4.437,6.578-7.396,11.583-7.396c1.782,0,3.51,0.359,5.134,1.075l5.174,2.276
		l1.723-5.381c3.971-12.381,15.379-20.699,28.39-20.699c14.734,0,27.175,10.715,29.432,25.124
		c-5.896,3.157-10.548,8.235-13.185,14.421c-1.098,2.581,0.106,5.576,2.687,6.676c0.637,0.272,1.308,0.408,1.996,0.408
		c2.044,0,3.881-1.216,4.682-3.096c2.032-4.771,5.967-8.573,10.796-10.432l0.143-0.057c0.354-0.131,0.715-0.252,1.077-0.364
		l0.271-0.079c0.791-0.233,1.624-0.421,2.463-0.552l0.197-0.03c0.416-0.061,0.832-0.106,1.248-0.141l0.236-0.016
		c0.424-0.028,0.858-0.047,1.299-0.047c10.619,0,19.258,8.641,19.258,19.26s-8.639,19.258-19.258,19.258
		c-2.807,0-5.09,2.285-5.09,5.089c0,2.809,2.283,5.091,5.09,5.091c16.23,0,29.437-13.207,29.437-29.438
		C226.525,497.177,213.318,483.97,197.088,483.97z"/>
</g>
</svg>
